<?xml version="1.0" encoding="UTF-8"?>
<svg width="1200pt" height="1200pt" version="1.1" viewBox="0 0 1200 1200" xmlns="http://www.w3.org/2000/svg">
 <path d="m600 60c-298.8 0-540 241.2-540 540 0 297.6 241.2 540 540 540s540-242.4 540-540c0-298.8-241.2-540-540-540zm-298.8 789.6c-28.801 0-52.801-24-52.801-52.801s24-52.801 52.801-52.801h596.4c28.801 0 52.801 24 52.801 52.801s-24 52.801-52.801 52.801zm0-196.8c-28.801 0-52.801-24-52.801-52.801 0-30 24-52.801 52.801-52.801h596.4c28.801 0 52.801 24 52.801 52.801s-24 52.801-52.801 52.801zm0-198c-28.801 0-52.801-24-52.801-52.801s24-52.801 52.801-52.801h596.4c28.801 0 52.801 24 52.801 52.801s-24 52.801-52.801 52.801z"/>
</svg>
